<svg width="164" height="165" viewBox="0 0 164 165" fill="none" xmlns="http://www.w3.org/2000/svg">
<path fill-rule="evenodd" clip-rule="evenodd" d="M5.24757 24.3482H20.8152V16.9726H36.8201V0.734375H64.6903V16.9726H80.6952V24.3482H101.51V164.282H0V24.3482H5.24757ZM115.533 138.365L136.99 141.951L122.413 163.233L115.533 138.365ZM140.663 19.6547L151.77 21.5204L150.254 30.4704L139.147 28.6337L140.663 19.6547ZM117.049 129.328L138.505 132.914L143.695 133.788L144.54 128.599C150.701 91.672 156.843 54.8325 162.965 18.0804L163.839 12.8912L158.65 12.0165L137.194 8.45987L132.033 7.58532L131.159 12.7745C124.998 49.7015 118.856 86.5411 112.734 123.293L111.86 128.482L117.049 129.328ZM135.065 121.69L123.958 119.853L137.427 38.983L148.534 40.8196L135.065 121.69ZM20.8152 34.8433H10.4076V153.787H90.9279V34.8433H80.6077V44.7553H20.7278V34.8433H20.8152ZM70.2002 34.3477V27.4676H54.1369V11.2294H47.2569V27.4676H31.2519V34.3477H70.2002ZM35.2167 116.967L28.4824 124.984L42.2426 136.645L46.2074 139.969L49.5599 136.091L72.8822 109.212L64.9818 102.303L44.9538 125.334L35.1293 117.054L35.2167 116.967ZM26.0044 81.1088V91.604H75.4185V81.1088H26.0044ZM26.0044 59.0111V69.506H75.4185V59.0111H26.0044Z" fill="#FF0000"/>
</svg>
