<svg width="159" height="155" viewBox="0 0 159 155" fill="none" xmlns="http://www.w3.org/2000/svg">
<path fill-rule="evenodd" clip-rule="evenodd" d="M118.298 80.9597V144.105H130.192V74.9834L118.298 80.9597ZM27.9237 126.438V144.105H39.8181V120.462L27.9237 126.438ZM17.4287 144.105V119.996L20.344 118.538L42.7334 107.285L50.3423 103.437V144.105H62.4991V97.4603L65.4144 96.0026L87.8038 84.7204L95.4127 80.9014V144.251H107.744V74.5461L110.66 73.0884L133.049 61.8063L140.658 57.9581V144.105H152.756C154.146 144.112 155.476 144.668 156.459 145.65C157.441 146.633 157.996 147.963 158.004 149.352C158.004 150.744 157.451 152.079 156.467 153.063C155.483 154.047 154.148 154.6 152.756 154.6H5.44683C4.75664 154.604 4.07252 154.471 3.43412 154.208C2.79571 153.946 2.21568 153.56 1.72763 153.072C1.23958 152.583 0.853235 152.004 0.590891 151.365C0.328548 150.727 0.195434 150.043 0.199301 149.352C0.199301 147.961 0.752159 146.626 1.73626 145.642C2.72036 144.658 4.0551 144.105 5.44683 144.105H17.4287ZM72.8192 103.757V144.105H84.7136V97.6935L72.8192 103.699V103.757ZM143.923 10.2348C144.737 9.45313 145.28 8.43251 145.474 7.32111C145.668 6.20972 145.502 5.06543 145.002 4.0544C144.473 3.01444 143.612 2.18041 142.556 1.68413C141.501 1.18785 140.309 1.05761 139.171 1.31402L92.3225 0.00210723C90.9355 -0.037188 89.5894 0.474428 88.5787 1.42505C87.5679 2.37568 86.9749 3.68799 86.9292 5.07477C86.8977 6.4645 87.4159 7.81045 88.3711 8.82031C89.3264 9.83016 90.6416 10.4223 92.0309 10.468L119.318 11.226L15.388 63.9927C14.1546 64.6229 13.2203 65.715 12.7889 67.0312C12.3575 68.3473 12.4639 69.7806 13.0849 71.0186C13.3914 71.6346 13.8168 72.1838 14.3364 72.6348C14.856 73.0857 15.4597 73.4294 16.1127 73.6462C16.7656 73.8629 17.4551 73.9485 18.1412 73.8978C18.8274 73.8471 19.4967 73.6612 20.1107 73.3508L124.711 20.2051L110.135 42.3613C109.753 42.9346 109.489 43.5779 109.357 44.254C109.225 44.9301 109.228 45.6256 109.366 46.3005C109.504 46.9753 109.775 47.6162 110.162 48.186C110.549 48.7558 111.045 49.2433 111.622 49.6204C112.193 50.0014 112.834 50.2654 113.508 50.3969C114.181 50.5284 114.875 50.525 115.547 50.3867C116.22 50.2484 116.858 49.9781 117.425 49.5913C117.992 49.2045 118.477 48.709 118.852 48.1336L144.011 10.2348H143.923Z" fill="#FF0000"/>
</svg>
