<svg width="133" height="164" viewBox="0 0 133 164" fill="none" xmlns="http://www.w3.org/2000/svg">
<path fill-rule="evenodd" clip-rule="evenodd" d="M72.8448 87.3769H63.341V56.3873L55.7613 56.5913V50.1194L72.8448 45.8923V87.3769ZM93.2519 127.141C100.734 123.825 107.543 119.16 113.338 113.381C119.473 107.26 124.34 99.9901 127.661 91.9863C130.983 83.9825 132.694 75.4022 132.696 66.7366C132.69 58.0714 130.978 49.4921 127.657 41.4887C124.336 33.4853 119.47 26.2146 113.338 20.0919C100.969 7.71369 84.1926 0.75133 66.6936 0.734375C58.0279 0.736425 49.4477 2.4472 41.4439 5.76878C33.4401 9.09037 26.1698 13.9576 20.049 20.0919C13.9121 26.2108 9.04315 33.4807 5.72138 41.485C2.39962 49.4892 0.69029 58.0704 0.691422 66.7366C0.685505 75.4034 2.39267 83.986 5.71471 91.9909C9.03675 99.9958 13.9082 107.265 20.049 113.381C25.8336 119.173 32.6448 123.839 40.1353 127.141V163.699L47.5693 160.259L66.7811 151.367L85.9928 160.259L93.4559 163.699V127.229L93.2519 127.141ZM50.4263 130.756C55.7094 132.07 61.1329 132.736 66.577 132.739C72.0306 132.735 77.4637 132.07 82.7569 130.756V147.315L66.6062 139.852L50.4554 147.315V130.756H50.4263ZM105.817 27.3219C100.66 22.1461 94.5307 18.0416 87.7812 15.2447C81.0317 12.4478 73.7956 11.0139 66.4895 11.0254C59.1835 11.0139 51.9473 12.4478 45.1978 15.2447C38.4483 18.0416 32.3188 22.1461 27.1623 27.3219C21.9918 32.4808 17.8926 38.6114 15.1008 45.3608C12.309 52.1102 10.8796 59.345 10.8949 66.649C10.8796 73.953 12.309 81.188 15.1008 87.9374C17.8926 94.6868 21.9918 100.817 27.1623 105.976C32.3212 111.147 38.4518 115.246 45.2012 118.038C51.9506 120.83 59.1855 122.259 66.4895 122.244C73.7935 122.259 81.0285 120.83 87.7779 118.038C94.5273 115.246 100.658 111.147 105.817 105.976C110.985 100.814 115.084 94.6834 117.881 87.9352C120.677 81.187 122.115 73.9536 122.113 66.649C122.125 59.343 120.691 52.1069 117.894 45.3574C115.097 38.6079 110.993 32.4784 105.817 27.3219ZM66.4895 20.1211C60.3808 20.1071 54.3299 21.3029 48.6858 23.6396C43.0417 25.9763 37.9162 29.4076 33.6051 33.7355C29.2749 38.0524 25.8405 43.1826 23.4991 48.831C21.1577 54.4793 19.9555 60.5346 19.9615 66.649C19.9577 72.7588 21.1611 78.8092 23.5024 84.4525C25.8438 90.0958 29.2771 95.221 33.6051 99.5336C37.9147 103.865 43.0393 107.301 48.6833 109.643C54.3273 111.985 60.379 113.186 66.4895 113.177C72.6627 113.23 78.7844 112.05 84.496 109.707C90.2077 107.364 95.3946 103.906 99.753 99.5336C104.072 95.2157 107.497 90.089 109.833 84.4464C112.169 78.8039 113.37 72.7561 113.367 66.649C113.362 54.3089 108.466 42.4739 99.753 33.7355C95.4346 29.4093 90.3036 25.9794 84.6551 23.643C79.0066 21.3065 72.952 20.1097 66.8393 20.1211H66.4895ZM91.9691 41.1695C88.6269 37.8184 84.6553 35.1609 80.2826 33.3498C75.9099 31.5387 71.2224 30.6096 66.4895 30.6161C61.7566 30.6096 57.0691 31.5387 52.6964 33.3498C48.3238 35.1609 44.3522 37.8184 41.0099 41.1695C37.6601 44.5127 35.0034 48.4845 33.1924 52.8569C31.3814 57.2294 30.4517 61.9163 30.4566 66.649C30.4565 71.381 31.3884 76.0667 33.1991 80.4385C35.0098 84.8103 37.664 88.7827 41.0099 92.1288C44.356 95.4747 48.3283 98.1289 52.7001 99.9396C57.0719 101.75 61.7576 102.682 66.4895 102.682C71.2476 102.724 75.9671 101.824 80.3753 100.033C84.7836 98.2414 88.7933 95.5946 92.1732 92.2453C95.5243 88.9031 98.1818 84.9314 99.9929 80.5587C101.804 76.1861 102.733 71.4986 102.727 66.7657C102.755 62.0123 101.836 57.3008 100.024 52.9061C98.2125 48.5115 95.5435 44.5217 92.1732 41.1695H91.9691Z" fill="#FF0000"/>
</svg>
