<svg width="274" height="102" viewBox="0 0 274 102" fill="none" xmlns="http://www.w3.org/2000/svg">
<path d="M32.2482 58.4649C32.2482 56.6449 31.5657 55.0524 30.2007 53.6874C28.8925 52.2655 27.2432 51.128 25.2525 50.2749C23.2619 49.3649 21.0722 48.3411 18.6835 47.2036C16.3516 46.0092 14.1903 44.7864 12.1997 43.5352C10.2091 42.227 8.53126 40.4355 7.16626 38.1605C5.85813 35.8286 5.20407 33.1555 5.20407 30.1411C5.20407 25.5342 6.88188 21.6383 10.2375 18.4533C13.7069 15.2683 18.2285 13.6758 23.8022 13.6758C31.3666 13.6758 37.0541 15.8086 40.8647 20.0742L35.2341 27.923C32.2197 24.9655 28.6935 23.4867 24.6553 23.4867C22.096 23.4867 20.0485 24.0839 18.5128 25.2783C17.0341 26.4727 16.2947 28.0652 16.2947 30.0558C16.2947 31.0795 16.4938 32.0464 16.8919 32.9564C17.29 33.8095 17.7166 34.5205 18.1716 35.0892C18.6835 35.658 19.4797 36.2836 20.5603 36.9661C21.6978 37.6486 22.5794 38.1605 23.205 38.5017C23.8875 38.7861 24.9966 39.2695 26.5322 39.952C28.0678 40.6345 29.1485 41.118 29.7741 41.4024C32.2766 42.5399 34.4663 43.7342 36.3432 44.9855C38.4475 46.2367 40.1254 48.0283 41.3766 50.3602C42.6847 52.692 43.3388 55.3652 43.3388 58.3796C43.3388 63.3846 41.4335 67.4511 37.6228 70.5793C33.8122 73.7074 29.0632 75.2714 23.3756 75.2714C19.3944 75.2714 15.4416 74.4468 11.5172 72.7974C7.76344 71.0911 5.20407 68.7877 3.83907 65.8871L9.81095 58.7208C11.4034 60.8252 13.451 62.4746 15.9535 63.6689C18.5128 64.8633 21.0438 65.4605 23.5463 65.4605C26.1625 65.4605 28.2669 64.8349 29.8594 63.5836C31.4519 62.3324 32.2482 60.6261 32.2482 58.4649ZM63.8765 74.333H54.0655V35.9423H63.8765V74.333ZM53.0418 22.1217C53.0418 20.4155 53.6105 19.0505 54.748 18.0267C55.9424 16.9461 57.4211 16.4058 59.1843 16.4058C60.7199 16.4058 62.028 16.9461 63.1086 18.0267C64.2461 19.1073 64.8149 20.4723 64.8149 22.1217C64.8149 23.9417 64.2461 25.4205 63.1086 26.558C62.028 27.6955 60.7199 28.2642 59.1843 28.2642C57.4211 28.2642 55.9424 27.6955 54.748 26.558C53.6105 25.4205 53.0418 23.9417 53.0418 22.1217ZM71.2427 79.5371C71.2427 76.5227 72.3517 74.0202 74.5699 72.0296C76.788 69.9821 79.8308 68.5318 83.6983 67.6786C83.2433 66.8824 83.0158 66.0008 83.0158 65.0339C83.0158 63.9533 83.3002 63.0433 83.8689 62.3039C81.0252 61.1664 78.7786 59.4602 77.1292 57.1852C75.5367 54.8533 74.7405 52.2655 74.7405 49.4217C74.7405 45.4974 76.2477 42.1133 79.262 39.2695C82.2764 36.4258 86.2292 35.0039 91.1205 35.0039C94.8174 35.0039 98.0877 35.9139 100.931 37.7339L112.534 35.1745L112.875 43.0233L106.477 44.4736C107.102 46.1799 107.415 47.8292 107.415 49.4217C107.415 53.2892 105.908 56.6449 102.894 59.4886C99.9361 62.2186 96.0117 63.5836 91.1205 63.5836H90.438C90.3242 64.0386 90.2674 64.5221 90.2674 65.0339C90.2674 65.7733 90.438 66.4274 90.7792 66.9961H91.2058C97.1777 66.9961 101.984 68.0483 105.624 70.1527C109.321 72.3139 111.169 75.4421 111.169 79.5371C111.169 83.6321 109.321 86.7602 105.624 88.9215C101.984 91.0258 97.1777 92.078 91.2058 92.078C85.0633 92.078 80.2005 90.9974 76.6174 88.8361C73.0342 86.7318 71.2427 83.6321 71.2427 79.5371ZM80.3711 79.5371C80.3711 81.0158 81.3095 82.1533 83.1864 82.9496C85.1202 83.8027 87.7933 84.2293 91.2058 84.2293C98.3721 84.2293 101.955 82.6652 101.955 79.5371C101.955 78.1152 101.017 76.9777 99.1399 76.1246C97.263 75.2714 94.6183 74.8449 91.2058 74.8449C87.8502 74.8449 85.2055 75.2714 83.2717 76.1246C81.338 76.9777 80.3711 78.1152 80.3711 79.5371ZM91.1205 55.6496C93.2249 55.6496 94.9311 55.0808 96.2392 53.9433C97.6043 52.8058 98.2868 51.2986 98.2868 49.4217C98.2868 47.488 97.6327 45.9239 96.3246 44.7295C95.0164 43.5352 93.2817 42.938 91.1205 42.938C88.9592 42.938 87.2246 43.5636 85.9164 44.8149C84.6083 46.0092 83.9542 47.5449 83.9542 49.4217C83.9542 51.2417 84.6083 52.7489 85.9164 53.9433C87.2246 55.0808 88.9592 55.6496 91.1205 55.6496Z" fill="#FF0000"/>
<path d="M117.228 44.4736C117.228 35.7717 120.129 28.4633 125.93 22.5483C131.845 16.6333 139.296 13.6758 148.282 13.6758C157.268 13.6758 164.69 16.5195 170.549 22.207C176.464 27.9514 179.421 35.3736 179.421 44.4736C179.421 53.403 176.464 60.7683 170.549 66.5696C164.634 72.3708 157.211 75.2714 148.282 75.2714C139.296 75.2714 131.873 72.4277 126.015 66.7402C120.157 61.0527 117.228 53.6305 117.228 44.4736ZM128.319 44.4736C128.319 50.5024 130.224 55.5074 134.035 59.4886C137.845 63.4699 142.594 65.4605 148.282 65.4605C154.424 65.4605 159.287 63.4699 162.87 59.4886C166.51 55.5074 168.33 50.5024 168.33 44.4736C168.33 38.388 166.397 33.3545 162.529 29.3733C158.662 25.4489 153.913 23.4867 148.282 23.4867C142.538 23.4867 137.76 25.4489 133.949 29.3733C130.196 33.2977 128.319 38.3311 128.319 44.4736ZM198.56 74.333H188.749V35.9423H198.56V39.7814C201.403 36.767 205.072 35.2598 209.565 35.2598C220.087 35.2598 225.348 40.7767 225.348 51.8105V74.333H215.537V53.5167C215.537 47.488 212.665 44.4736 206.92 44.4736C203.792 44.4736 201.005 45.6964 198.56 48.142V74.333ZM265.436 63.5836L268.251 70.4939C264.441 73.6789 259.55 75.2714 253.578 75.2714C247.435 75.2714 242.43 73.423 238.563 69.7261C234.809 66.0861 232.932 61.2233 232.932 55.1377C232.932 49.4502 234.78 44.6727 238.477 40.8052C242.174 36.9377 247.094 35.0039 253.236 35.0039C258.298 35.0039 262.592 36.6817 266.119 40.0374C269.645 43.393 271.408 47.6586 271.408 52.8342C271.408 55.1092 271.209 56.8724 270.811 58.1236H243.084C243.482 60.9105 244.705 63.1002 246.753 64.6927C248.857 66.2852 251.473 67.0814 254.601 67.0814C258.867 67.0814 262.479 65.9155 265.436 63.5836ZM252.81 43.1939C247.236 43.1939 243.88 45.9808 242.743 51.5545H261.597C261.654 49.1089 260.858 47.1183 259.208 45.5827C257.616 43.9902 255.483 43.1939 252.81 43.1939Z" fill="white"/>
</svg>
