<svg width="41" height="42" viewBox="0 0 41 42" fill="none" xmlns="http://www.w3.org/2000/svg">
<path d="M23.0172 11.5798C27.8576 11.5798 29.9221 13.6444 29.9221 18.4848H34.5254C34.5254 11.0619 30.44 6.97649 23.0172 6.97649V11.5798ZM30.8934 24.1077C30.4512 23.7057 29.87 23.4913 29.2726 23.5098C28.6752 23.5283 28.1084 23.7781 27.6918 24.2067L22.184 29.871C20.8582 29.6178 18.1929 28.7869 15.4493 26.0503C12.7058 23.3044 11.8749 20.6322 11.6286 19.3156L17.2884 13.8055C17.7174 13.3892 17.9677 12.8223 17.9861 12.2247C18.0046 11.6272 17.7899 11.0459 17.3873 10.6039L8.88273 1.25228C8.48004 0.808882 7.92036 0.539929 7.32256 0.502539C6.72476 0.46515 6.13593 0.662271 5.68113 1.05204L0.686542 5.33541C0.288612 5.73478 0.0511002 6.26632 0.0190622 6.82918C-0.0154626 7.4046 -0.673736 21.035 9.89545 31.6088C19.1159 40.8269 30.6656 41.5013 33.8465 41.5013C34.3114 41.5013 34.5968 41.4875 34.6727 41.4829C35.2355 41.4514 35.7668 41.2128 36.1642 40.8131L40.4453 35.8162C40.8353 35.3617 41.0329 34.773 40.9959 34.1752C40.9589 33.5774 40.6904 33.0176 40.2473 32.6146L30.8934 24.1077Z" fill="white"/>
</svg>
