<svg width="218" height="61" viewBox="0 0 218 61" fill="none" xmlns="http://www.w3.org/2000/svg">
<path d="M89.9164 32.8404C89.36 31.7816 88.6507 30.9736 87.8023 30.3885C86.9539 29.8034 86.0359 29.2461 85.0484 28.7307C84.0609 28.2152 83.143 27.7694 82.2946 27.4211C81.4462 27.0728 80.7507 26.627 80.1805 26.0698C79.6242 25.5265 79.346 24.8996 79.346 24.203C79.346 23.5761 79.5824 23.0885 80.0692 22.7263C80.556 22.3641 81.2236 22.1829 82.086 22.1829C82.9761 22.1829 83.6993 22.3083 84.2557 22.573C84.812 22.8377 85.4796 23.3114 86.2306 24.0219L89.5965 19.3409C87.7188 17.3348 85.0345 16.3457 81.5435 16.3457C78.887 16.3457 76.7451 17.1119 75.1318 18.6444C73.5184 20.1768 72.7117 22.0297 72.7117 24.2169C72.6839 25.206 72.8369 26.1255 73.1568 26.9893C73.4767 27.853 73.8661 28.5635 74.3251 29.1347C74.7841 29.7059 75.3682 30.2631 76.0775 30.7925C76.7869 31.3219 77.4406 31.7399 78.0247 32.0463C78.6089 32.3389 79.2904 32.6593 80.0831 33.0076C82.7675 34.2754 84.1027 35.4874 84.1027 36.6298C84.1027 37.2845 83.8801 37.7861 83.4212 38.1761C82.9622 38.5523 82.3363 38.7473 81.5296 38.7473C80.4587 38.7473 79.3877 38.4966 78.3307 37.9811C77.2597 37.4796 76.3835 36.7691 75.6742 35.8635L72.3223 40.4887C72.9899 41.6729 74.1304 42.6202 75.7437 43.3447C77.5101 44.1527 79.3877 44.5567 81.3766 44.5567C84.0888 44.5567 86.3141 43.8044 88.0666 42.2998C89.8607 40.7952 90.7648 38.8727 90.7648 36.5322C90.7509 35.1252 90.4727 33.8992 89.9164 32.8404Z" fill="#FF0000"/>
<path d="M102.476 44.0829H96.2168V16.8053H102.476V44.0829Z" fill="#FF0000"/>
<path d="M121.154 34.3868H126.982V37.3542C126.62 37.6885 126.008 38.009 125.146 38.2876C124.228 38.5801 123.408 38.7195 122.684 38.7195C120.236 38.7195 118.275 37.9672 116.801 36.4765C115.327 34.9858 114.59 32.9797 114.59 30.4582C114.59 27.8112 115.313 25.7633 116.759 24.3423C118.206 22.9074 120.139 22.1969 122.559 22.1969C123.63 22.1969 124.687 22.3919 125.744 22.782C126.453 23.0467 127.052 23.3532 127.538 23.7014L130.765 19.2016C128.401 17.307 125.41 16.3596 121.822 16.3596C117.649 16.3596 114.298 17.711 111.738 20.4136C109.207 23.0885 107.941 26.4459 107.941 30.4721C107.941 34.7908 109.235 38.2179 111.808 40.7674C114.409 43.3168 118.011 44.5846 122.601 44.5846C124.395 44.5846 126.245 44.2363 128.15 43.5258C130.111 42.8292 131.669 41.8819 132.837 40.7256V28.5635H121.154V34.3868Z" fill="#FF0000"/>
<path d="M151.461 16.3318C143.464 16.3318 136.982 22.6427 136.982 30.4443C136.982 38.2458 143.464 44.5567 151.461 44.5567C159.458 44.5567 165.94 38.2458 165.94 30.4443C165.94 22.6427 159.458 16.3318 151.461 16.3318ZM151.461 38.9145C146.788 38.9145 143.005 35.1252 143.005 30.4443C143.005 25.7633 146.788 21.974 151.461 21.974C156.134 21.974 159.917 25.7633 159.917 30.4443C159.917 35.1252 156.134 38.9145 151.461 38.9145Z" fill="#F1F1F1"/>
<path d="M194.357 16.8053V44.0829H189.35L176.373 27.7136V44.0829H170.518V16.8053H175.525L188.501 33.2582V16.8053H194.357Z" fill="#F1F1F1"/>
<path d="M217.997 44.0829H201.391V16.8053H217.608V22.6565H207.635V27.4489H216.426V33.3H207.635V38.2457H217.997V44.0829Z" fill="#F1F1F1"/>
<path d="M29.9726 6.48237H60.2372L64.7435 0.213257H29.9726C19.1936 0.213257 10.3061 8.4049 9.19344 18.9231C9.10999 19.6475 9.08217 20.3859 9.08217 21.1382C9.08217 22.5313 9.22126 23.8826 9.47161 25.1922C10.2922 29.3437 12.3228 33.0634 15.2019 35.9333C18.3591 39.0957 22.5316 41.255 27.177 41.882V42.0631H13.4355L8.92918 48.3322H31.2799C36.2592 48.3322 40.6542 45.8524 43.3107 42.0631C44.5903 40.2381 45.4665 38.0926 45.8003 35.7939C45.9116 35.0835 45.9672 34.3729 45.9672 33.6346C45.9672 32.3529 45.8003 31.113 45.4943 29.9288C47.0103 31.5727 48.1647 33.5789 48.8045 35.7939C49.18 37.0756 49.3748 38.4409 49.3748 39.848C49.3748 40.6003 49.3191 41.3526 49.2079 42.0631C48.1369 49.0984 42.0729 54.5038 34.7431 54.5038H4.50632L0 60.7868H34.7292C45.5221 60.7868 54.4096 52.5952 55.5084 42.077C55.5918 41.3526 55.6196 40.6142 55.6196 39.8619C55.6196 38.4688 55.4805 37.1174 55.2302 35.8079C54.4096 31.6563 52.379 27.9367 49.4999 25.0668C46.3845 21.9462 42.2954 19.8147 37.7334 19.146V18.9231H51.3219L55.8282 12.64H33.4357C28.4565 12.64 24.0615 15.1198 21.405 18.9231C20.1115 20.7481 19.2492 22.8935 18.9015 25.1922C18.7902 25.9027 18.7346 26.6132 18.7346 27.3515C18.7346 28.6332 18.9015 29.8731 19.2075 31.0573C17.6915 29.4134 16.5371 27.4073 15.8973 25.1922C15.5218 23.9105 15.327 22.5452 15.327 21.1382C15.327 20.3859 15.3827 19.6336 15.4939 18.9231C16.5788 11.8877 22.6568 6.48237 29.9726 6.48237ZM29.9447 22.378C36.5512 20.4695 42.4623 26.3903 40.5568 33.0077C39.778 35.6964 37.6639 37.8279 34.9657 38.6081C28.3592 40.5167 22.4481 34.5959 24.3536 27.9785C25.1324 25.2897 27.2465 23.1582 29.9447 22.378Z" fill="#F1F1F1"/>
</svg>
