<svg width="18" height="17" viewBox="0 0 18 17" fill="none" xmlns="http://www.w3.org/2000/svg">
<path d="M16.382 5.35977L11.8164 4.69415L9.7758 0.556646C9.41017 -0.180854 8.3508 -0.190229 7.98205 0.556646L5.94142 4.69415L1.3758 5.35977C0.557046 5.47852 0.228921 6.4879 0.822671 7.06602L4.1258 10.2848L3.34455 14.8316C3.20392 15.6535 4.06955 16.2691 4.79455 15.8848L8.87892 13.7379L12.9633 15.8848C13.6883 16.266 14.5539 15.6535 14.4133 14.8316L13.632 10.2848L16.9352 7.06602C17.5289 6.4879 17.2008 5.47852 16.382 5.35977ZM12.0227 9.75977L12.7633 14.0848L8.87892 12.0441L4.99455 14.0848L5.73517 9.75977L2.59142 6.69727L6.93517 6.06602L8.87892 2.12852L10.8227 6.06602L15.1664 6.69727L12.0227 9.75977Z" fill="#FF0000"/>
</svg>
